<svg xmlns="http://www.w3.org/2000/svg" width="24.577" height="25.148" viewBox="0 0 24.577 25.148"><g transform="translate(-16.477 -6.474)"><path d="M42.4,13.473a12.059,12.059,0,0,1,3.263-4.131A12.552,12.552,0,0,1,60.074,8.247a14.065,14.065,0,0,1,1.732,1.235c.136.11.12.176.005.286q-1.679,1.671-3.348,3.353c-.131.131-.2.12-.341.015a7.4,7.4,0,0,0-11.434,3.378,1.458,1.458,0,0,1-.09.176c-.648-.492-1.3-.984-1.943-1.481Q43.524,14.344,42.4,13.473Z" transform="translate(-24.621)" fill="#e94335"/><path d="M46.5,303.8a13.093,13.093,0,0,0,.668,1.421,7.221,7.221,0,0,0,4.909,3.494,7.847,7.847,0,0,0,5.521-.843c.06-.03.12-.06.176-.09.03.03.055.065.085.09q1.943,1.506,3.89,3.012a9.929,9.929,0,0,1-2.083,1.546,12.072,12.072,0,0,1-7.037,1.556,12.325,12.325,0,0,1-7.986-3.674A11.481,11.481,0,0,1,42.3,307c.537-.412,1.074-.818,1.611-1.23C44.775,305.11,45.638,304.458,46.5,303.8Z" transform="translate(-24.526 -282.401)" fill="#34a853"/><path d="M275.075,222.741q-1.943-1.506-3.89-3.012a.727.727,0,0,1-.085-.09,7.717,7.717,0,0,0,1.27-1.124,5.838,5.838,0,0,0,1.23-2.49c.025-.115.005-.156-.11-.151-.06.005-.115,0-.176,0-2.048,0-4.1-.005-6.149.005-.226,0-.276-.06-.271-.276q.015-2.183,0-4.367c0-.186.05-.236.236-.236q5.632.008,11.269,0c.161,0,.226.04.266.211a11.826,11.826,0,0,1,.1,4.161,13.6,13.6,0,0,1-.838,3.238,11.516,11.516,0,0,1-2.721,4.041C275.161,222.685,275.116,222.71,275.075,222.741Z" transform="translate(-237.846 -194.26)" fill="#4285f3"/><path d="M21.975,153.921c-.863.658-1.727,1.31-2.59,1.968-.537.407-1.074.818-1.611,1.23a10.86,10.86,0,0,1-.909-2.434,12.655,12.655,0,0,1-.256-4.949A11.516,11.516,0,0,1,17.774,146c.753.577,1.5,1.16,2.254,1.737q.971.745,1.943,1.481a14.593,14.593,0,0,0-.316,1.616,7.789,7.789,0,0,0,.291,2.946A.412.412,0,0,1,21.975,153.921Z" transform="translate(0 -132.522)" fill="#fabb06"/></g></svg>