<?xml version="1.0" encoding="utf-8"?>
<!-- Generator: Adobe Illustrator 23.0.4, SVG Export Plug-In . SVG Version: 6.00 Build 0)  -->
<svg version="1.1" id="Layer_1" xmlns="http://www.w3.org/2000/svg" xmlns:xlink="http://www.w3.org/1999/xlink" x="0px" y="0px"
	 viewBox="0 0 561.99 191.99" style="enable-background:new 0 0 561.99 191.99;" xml:space="preserve">
<style type="text/css">
	.st0{fill:#231F20;}
	.st1{fill:#E80BDB;}
	.st2{fill:#C100FF;}
	.st3{fill:#3F0DFF;}
	.st4{fill:#FFCE00;}
	.st5{fill:#FF7300;}
	.st6{fill:#414042;}
	.st7{fill:#FFFFFF;}
	.st8{fill:#939598;}
	.st9{fill:#FF0D78;}
	.st10{fill:#58595B;}
</style>
<g>
	<g>
		<g>
			<path class="st7" d="M290.25,70.47c3.24,0,5.81-2.65,5.81-5.96c0-3.31-2.58-6.03-5.81-6.03c-3.24,0-5.89,2.72-5.89,6.03
				C284.36,67.82,287.01,70.47,290.25,70.47z"/>
			<path class="st7" d="M290.21,76.6L290.21,76.6c-3.3,0-5.97,2.67-5.97,5.97v34.71c0,3.3,2.67,5.97,5.97,5.97l0,0
				c3.3,0,5.97-2.67,5.97-5.97V82.57C296.18,79.28,293.51,76.6,290.21,76.6z"/>
			<path class="st7" d="M216.55,82.57c0-3.3-2.67-5.97-5.97-5.97l0,0c-2.28,0-4.27,1.28-5.27,3.17l-0.7-0.42
				c-3.87-2.23-8.76-3.61-13.66-3.61c-12.97,0-23.54,9.54-23.54,24.14c0,14.35,10.57,24.05,23.54,24.05c5.07,0,9.71-1.29,13.66-3.52
				v11.9c0,3.3,2.67,5.97,5.97,5.97h0c3.3,0,5.97-2.67,5.97-5.97V86.48l0,0V82.57z M193.09,113.2c-7.99,0-13.92-5.41-13.92-13.31
				c0-7.65,5.93-13.4,13.92-13.4c4.55,0,8.5,1.55,11.51,4.04v18.73C201.68,111.74,197.65,113.2,193.09,113.2z"/>
			<path class="st7" d="M332.26,86.48c2.79,0,5.4,0.94,7.52,2.55c2.04,1.54,4.91,1.32,6.79-0.41h0c2.33-2.15,2.26-5.89-0.2-7.88
				c-3.88-3.14-8.75-5-14.11-5c-14.09,0-25.51,10.74-25.51,24.14c0,13.31,11.43,24.05,25.51,24.05c5.3,0,10.27-1.95,14.21-5.26
				c2.3-1.94,2.41-5.45,0.22-7.51l-0.3-0.28c-1.83-1.72-4.61-1.79-6.6-0.26c-2.12,1.63-4.73,2.57-7.52,2.57
				c-7.56,0-13.74-6.01-13.74-13.31C318.51,92.5,324.7,86.48,332.26,86.48z"/>
			<path class="st7" d="M387.41,94.82l8.91-9.54c3.08-3.29,0.74-8.67-3.77-8.67h0c-1.37,0-2.68,0.55-3.65,1.52l-18.42,18.5V64.45
				c0-3.3-2.67-5.97-5.97-5.97h0c-3.3,0-5.97,2.67-5.97,5.97v52.83c0,3.3,2.67,5.97,5.97,5.97h0c3.3,0,5.97-2.67,5.97-5.97v-4.42
				l9.02-8.68l10.27,16.41c1.04,1.66,2.86,2.66,4.81,2.66l0,0c4.42,0,7.15-4.84,4.85-8.62L387.41,94.82z"/>
			<path class="st7" d="M491.01,75.75c-4.9,0-9.71,1.37-13.57,3.61l-0.64,0.54c-0.98-1.95-3-3.29-5.33-3.29l0,0
				c-3.3,0-5.97,2.67-5.97,5.97v6.8v27.9v15.03c0,3.3,2.67,5.97,5.97,5.97l0,0c3.3,0,5.97-2.67,5.97-5.97v-11.9
				c3.87,2.23,8.59,3.52,13.57,3.52c12.97,0,23.62-9.71,23.62-24.05C514.63,85.28,503.98,75.75,491.01,75.75z M488.86,113.2
				c-4.55,0-8.59-1.46-11.43-3.95V90.52c2.92-2.49,6.96-4.04,11.43-4.04c7.99,0,14,5.76,14,13.4
				C502.86,107.79,496.85,113.2,488.86,113.2z"/>
			<path class="st7" d="M449.16,76.6h-1.85c-2.79,0-5.04,2.26-5.04,5.04v20.81v0.6c0,5.36-4.17,9.93-9.53,10.12
				c-5.62,0.2-10.25-4.3-10.25-9.88v-0.83V81.65c0-2.79-2.26-5.04-5.04-5.04h-1.85c-2.79,0-5.04,2.26-5.04,5.04v20.81
				c0,11.86,9.61,21.47,21.46,21.47h0.72c11.86,0,21.47-9.61,21.47-21.47l0,0V81.65C454.2,78.86,451.95,76.6,449.16,76.6z"/>
			<path class="st7" d="M265,76.6L265,76.6c-3.3,0-5.97,2.67-5.97,5.97v19.89v0.6c0,5.36-4.17,9.93-9.52,10.12
				c-5.62,0.2-10.25-4.3-10.25-9.88v-0.83V82.57c0-3.3-2.67-5.97-5.97-5.97h0c-3.3,0-5.97,2.67-5.97,5.97v19.89
				c0,11.86,9.61,21.47,21.46,21.47h0.72c11.86,0,21.47-9.61,21.47-21.47l0,0V82.57C270.97,79.28,268.3,76.6,265,76.6z"/>
		</g>
	</g>
	<path class="st7" d="M127.25,142.08c-2.19-1.93-3.28-4.6-3.27-7.27c0.01-2.45-0.89-4.81-2.62-6.54l-0.45-0.45
		c-1.73-1.73-4.1-2.63-6.54-2.62c-2.67,0.01-5.34-1.08-7.27-3.27c-3.18-3.6-3.18-9.1,0-12.7c1.93-2.19,4.6-3.28,7.26-3.27
		c2.45,0.01,4.82-0.89,6.56-2.63l0.51-0.51c1.73-1.73,2.64-4.1,2.63-6.55c0-0.02,0-0.05,0-0.07c0.01-2.45-0.9-4.82-2.63-6.55
		l-0.4-0.4c-1.72-1.72-4.05-2.66-6.48-2.63c-2.5,0.03-5-0.91-6.91-2.82c-1.91-1.91-2.84-4.41-2.82-6.91
		c0.03-2.43-0.91-4.76-2.63-6.48l-0.4-0.4c-1.73-1.73-4.1-2.64-6.55-2.63c-0.02,0-0.05,0-0.07,0c-2.45-0.01-4.82,0.9-6.55,2.63
		l-0.44,0.44c-1.95,2.25-2.47,4.07-2.57,5.34c-0.03,0.38,0,0.5-0.06,1.14c-0.11,1.36-0.23,2.93-1.1,4.59
		c-0.44,0.84-1.01,1.62-1.71,2.32c-1.91,1.91-4.42,2.85-6.92,2.82c-2.42-0.03-4.76,0.91-6.47,2.62l-0.45,0.45
		c-1.73,1.73-2.63,4.1-2.62,6.54c0,0.02,0,0.05,0,0.07c-0.01,2.45,0.9,4.81,2.63,6.54l0.41,0.41c1.71,1.71,4.04,2.65,6.46,2.62
		c2.5-0.03,5.01,0.91,6.92,2.82c1.91,1.91,2.84,4.41,2.82,6.91c-0.03,2.42,0.91,4.75,2.62,6.46l0.42,0.42
		c1.73,1.73,4.1,2.63,6.54,2.62c2.67-0.01,5.34,1.08,7.27,3.27c3.16,3.58,3.18,9.05,0.05,12.65c-3.7,4.26-10.16,4.43-14.08,0.51
		c-1.91-1.91-2.85-4.42-2.82-6.92c0.03-2.42-0.91-4.76-2.62-6.47l-0.4-0.4c-1.72-1.72-4.05-2.66-6.48-2.62
		c-2.5,0.03-5.02-0.91-6.92-2.82c-1.91-1.91-2.85-4.42-2.82-6.92c0.03-2.43-0.91-4.76-2.63-6.48l-0.4-0.4
		c-1.73-1.73-4.1-2.63-6.54-2.62c-2.67,0.01-5.34-1.08-7.28-3.27c-3.18-3.6-3.18-9.1,0-12.7c1.93-2.19,4.6-3.28,7.27-3.27
		c2.45,0.01,4.81-0.89,6.54-2.62l0.45-0.45c1.71-1.71,2.65-4.05,2.62-6.47c-0.03-2.5,0.91-5.01,2.82-6.92
		c1.91-1.91,4.41-2.84,6.91-2.82c2.43,0.03,4.76-0.91,6.48-2.63l0.44-0.44c1.73-1.73,2.64-4.1,2.63-6.55
		c-0.01-2.66,1.08-5.33,3.27-7.26c3.6-3.18,9.1-3.18,12.7,0c2.19,1.93,3.28,4.6,3.27,7.26c-0.01,2.45,0.89,4.82,2.63,6.55l0.4,0.4
		c1.72,1.72,4.05,2.66,6.48,2.63c2.5-0.03,5,0.91,6.91,2.82c1.91,1.91,2.84,4.41,2.82,6.91c-0.03,2.43,0.91,4.76,2.63,6.48l0.4,0.4
		c1.73,1.73,4.1,2.64,6.56,2.63c2.66-0.01,5.33,1.08,7.26,3.27c3.18,3.6,3.18,9.1,0,12.7c-1.93,2.19-4.6,3.28-7.26,3.27
		c-2.45-0.01-4.82,0.89-6.56,2.63l-0.51,0.51c-1.73,1.73-2.64,4.1-2.63,6.55c0,0.02,0,0.05,0,0.07c-0.01,2.45,0.89,4.81,2.62,6.54
		l0.45,0.45c1.71,1.71,4.05,2.65,6.47,2.62c2.5-0.03,5.01,0.91,6.92,2.82c3.92,3.92,3.75,10.38-0.51,14.08
		C136.29,145.26,130.83,145.24,127.25,142.08z"/>
</g>
</svg>
