<svg width="122" height="26" viewBox="0 0 122 26" fill="none" xmlns="http://www.w3.org/2000/svg">
<path d="M63.4044 6.35242C64.2461 6.35242 64.9138 5.66228 64.9138 4.80025C64.9138 3.93823 64.2435 3.22986 63.4044 3.22986C62.5627 3.22986 61.8742 3.93823 61.8742 4.80025C61.8742 5.66228 62.5627 6.35242 63.4044 6.35242Z" fill="#FF0D78"/>
<path d="M63.394 7.94885C62.5367 7.94885 61.843 8.6442 61.843 9.50362V18.5432C61.843 19.4026 62.5367 20.0979 63.394 20.0979C64.2513 20.0979 64.9449 19.4026 64.9449 18.5432V9.50362C64.9449 8.64681 64.2513 7.94885 63.394 7.94885Z" fill="#FF0D78"/>
<path d="M44.2578 9.50359C44.2578 8.64417 43.5641 7.94882 42.7068 7.94882C42.1145 7.94882 41.5975 8.28217 41.3377 8.77439L41.1559 8.66501C40.1505 8.08425 38.8801 7.72485 37.6071 7.72485C34.2376 7.72485 31.4916 10.2094 31.4916 14.0116C31.4916 17.7488 34.2376 20.275 37.6071 20.275C38.9243 20.275 40.1297 19.939 41.1559 19.3583V22.4574C41.1559 23.3168 41.8495 24.0122 42.7068 24.0122C43.5641 24.0122 44.2578 23.3168 44.2578 22.4574V10.5219V9.50359ZM38.1631 17.4806C36.0873 17.4806 34.5468 16.0716 34.5468 14.0142C34.5468 12.022 36.0873 10.5245 38.1631 10.5245C39.3451 10.5245 40.3713 10.9281 41.1533 11.5766V16.4545C40.3947 17.1003 39.3477 17.4806 38.1631 17.4806Z" fill="#FF0D78"/>
<path d="M74.3182 10.5219C75.043 10.5219 75.7211 10.7667 76.2718 11.186C76.8018 11.587 77.5474 11.5297 78.0358 11.0792C78.6411 10.5193 78.6229 9.54526 77.9838 9.027C76.9759 8.20925 75.7107 7.72485 74.3182 7.72485C70.6577 7.72485 67.6909 10.5219 67.6909 14.0116C67.6909 17.478 70.6603 20.275 74.3182 20.275C75.6951 20.275 76.9862 19.7671 78.0098 18.9051C78.6073 18.3999 78.6359 17.4858 78.067 16.9493L77.989 16.8764C77.5136 16.4284 76.7914 16.4102 76.2744 16.8087C75.7237 17.2332 75.0456 17.478 74.3208 17.478C72.3568 17.478 70.7513 15.9128 70.7513 14.0116C70.7461 12.0897 72.3542 10.5219 74.3182 10.5219Z" fill="#FF0D78"/>
<path d="M88.6457 12.6939L90.9604 10.2094C91.7606 9.35257 91.1527 7.95146 89.981 7.95146C89.6251 7.95146 89.2848 8.09469 89.0328 8.34731L84.2474 13.1653V4.78463C84.2474 3.92521 83.5538 3.22986 82.6965 3.22986C81.8392 3.22986 81.1455 3.92521 81.1455 4.78463V18.5432C81.1455 19.4026 81.8392 20.0979 82.6965 20.0979C83.5538 20.0979 84.2474 19.4026 84.2474 18.5432V17.3921L86.5907 15.1315L89.2588 19.4052C89.529 19.8375 90.0018 20.0979 90.5084 20.0979C91.6566 20.0979 92.3659 18.8374 91.7684 17.853L88.6457 12.6939Z" fill="#FF0D78"/>
<path d="M115.56 7.72754C114.287 7.72754 113.037 8.08433 112.035 8.66769L111.868 8.80832C111.614 8.30049 111.089 7.95151 110.484 7.95151C109.626 7.95151 108.933 8.64686 108.933 9.50628V11.2772V18.5432V22.4575C108.933 23.3169 109.626 24.0122 110.484 24.0122C111.341 24.0122 112.035 23.3169 112.035 22.4575V19.3584C113.04 19.9391 114.266 20.2751 115.56 20.2751C118.93 20.2751 121.696 17.7463 121.696 14.0117C121.696 10.2094 118.93 7.72754 115.56 7.72754ZM115.001 17.4806C113.819 17.4806 112.77 17.1004 112.032 16.452V11.5741C112.791 10.9256 113.84 10.522 115.001 10.522C117.077 10.522 118.639 12.022 118.639 14.0117C118.639 16.0717 117.077 17.4806 115.001 17.4806Z" fill="#FF0D78"/>
<path d="M104.688 7.94885H104.207C103.482 7.94885 102.898 8.53743 102.898 9.26142V14.681V14.8372C102.898 16.2331 101.814 17.4233 100.422 17.4728C98.962 17.5249 97.7592 16.3529 97.7592 14.8997V14.6836V9.26403C97.7592 8.53743 97.172 7.95146 96.4498 7.95146H95.9692C95.2444 7.95146 94.6599 8.54003 94.6599 9.26403V14.6836C94.6599 17.7723 97.1564 20.275 100.235 20.275H100.422C103.503 20.275 106 17.7723 106 14.6836V9.26403C105.997 8.53743 105.413 7.94885 104.688 7.94885Z" fill="#FF0D78"/>
<path d="M56.8447 7.94885C55.9873 7.94885 55.2937 8.6442 55.2937 9.50362V14.6836V14.8398C55.2937 16.2357 54.2104 17.4259 52.8205 17.4754C51.3605 17.5275 50.1576 16.3555 50.1576 14.9023V14.6862V9.50362C50.1576 8.6442 49.464 7.94885 48.6067 7.94885C47.7494 7.94885 47.0557 8.6442 47.0557 9.50362V14.6836C47.0557 17.7723 49.5523 20.275 52.6308 20.275H52.8179C55.899 20.275 58.3956 17.7723 58.3956 14.6836V9.50362C58.3956 8.64681 57.702 7.94885 56.8447 7.94885Z" fill="#FF0D78"/>
<path d="M21.0584 25.0019C20.4895 24.4993 20.2063 23.8039 20.2089 23.1086C20.2115 22.4705 19.9777 21.8559 19.5282 21.4053L19.4113 21.2881C18.9619 20.8376 18.3462 20.6032 17.7123 20.6058C17.0187 20.6084 16.325 20.3246 15.8236 19.7542C14.9975 18.8167 14.9975 17.3843 15.8236 16.4468C16.325 15.8764 17.0187 15.5925 17.7097 15.5951C18.3462 15.5977 18.9619 15.3634 19.4139 14.9102L19.5464 14.7774C19.9959 14.3268 20.2323 13.7096 20.2297 13.0716C20.2297 13.0664 20.2297 13.0586 20.2297 13.0533C20.2323 12.4153 19.9959 11.7981 19.5464 11.3475L19.4425 11.2434C18.9957 10.7954 18.3904 10.5506 17.7591 10.5584C17.1096 10.5662 16.4601 10.3214 15.9639 9.82401C15.4677 9.32659 15.2261 8.67551 15.2313 8.02444C15.2391 7.39159 14.9949 6.78479 14.548 6.33685L14.4441 6.23268C13.9947 5.78213 13.379 5.54514 12.7425 5.54775C12.7373 5.54775 12.7295 5.54775 12.7243 5.54775C12.0878 5.54514 11.4721 5.78213 11.0227 6.23268L10.9084 6.34727C10.4018 6.93323 10.2667 7.40722 10.2407 7.73796C10.2329 7.83693 10.2407 7.86818 10.2251 8.03485C10.1965 8.38904 10.1654 8.79791 9.93935 9.23023C9.82504 9.44899 9.67696 9.65212 9.4951 9.83443C8.9989 10.3318 8.34683 10.5767 7.69735 10.5688C7.06866 10.561 6.46074 10.8058 6.0165 11.2512L5.8996 11.3684C5.45016 11.8189 5.21635 12.4361 5.21894 13.0716C5.21894 13.0768 5.21894 13.0846 5.21894 13.0898C5.21635 13.7279 5.45276 14.3425 5.9022 14.793L6.00871 14.8998C6.45295 15.3451 7.05826 15.5899 7.68696 15.5821C8.33644 15.5743 8.98851 15.8191 9.48471 16.3165C9.98091 16.814 10.2225 17.465 10.2173 18.1161C10.2095 18.7463 10.4537 19.3532 10.898 19.7985L11.0071 19.9079C11.4565 20.3584 12.0722 20.5928 12.7061 20.5902C13.3998 20.5876 14.0934 20.8715 14.5948 21.4418C15.4157 22.3741 15.4209 23.7987 14.6078 24.7362C13.6466 25.8457 11.9683 25.89 10.9499 24.8691C10.4537 24.3716 10.2095 23.718 10.2173 23.0669C10.2251 22.4366 9.98091 21.8272 9.53667 21.3819L9.43275 21.2777C8.98591 20.8298 8.3806 20.585 7.74931 20.5954C7.09983 20.6032 6.44516 20.3584 5.95155 19.861C5.45535 19.3636 5.21115 18.7099 5.21894 18.0588C5.22674 17.426 4.98253 16.8192 4.53569 16.3712L4.43178 16.2671C3.98234 15.8165 3.36663 15.5821 2.73274 15.5847C2.0391 15.5873 1.34546 15.3035 0.841465 14.7331C0.0153289 13.7956 0.0153289 12.3632 0.841465 11.4257C1.34286 10.8553 2.0365 10.5714 2.73015 10.574C3.36663 10.5767 3.97974 10.3423 4.42918 9.89172L4.54608 9.77453C4.99033 9.32919 5.23453 8.71979 5.22674 8.08954C5.21894 7.43847 5.46315 6.78479 5.95935 6.28737C6.45555 5.78995 7.10503 5.54775 7.75451 5.55296C8.3858 5.56077 8.99111 5.31596 9.43795 4.86802L9.55226 4.75343C10.0017 4.30289 10.2381 3.68567 10.2355 3.04762C10.2329 2.35487 10.5161 1.65952 11.085 1.15689C12.0203 0.328725 13.4491 0.328725 14.3844 1.15689C14.9533 1.65952 15.2365 2.35487 15.2339 3.04762C15.2313 3.68567 15.4651 4.30289 15.9171 4.75343L16.0211 4.85761C16.4679 5.30555 17.0732 5.55035 17.7045 5.54254C18.354 5.53472 19.0035 5.77953 19.4997 6.27695C19.9959 6.77437 20.2375 7.42545 20.2323 8.07652C20.2245 8.70937 20.4687 9.31617 20.9155 9.76411L21.0194 9.86828C21.4689 10.3188 22.0846 10.5558 22.7237 10.5532C23.4147 10.5506 24.1084 10.8345 24.6098 11.4048C25.4359 12.3424 25.4359 13.7747 24.6098 14.7123C24.1084 15.2826 23.4147 15.5665 22.7237 15.5639C22.0872 15.5613 21.4715 15.7957 21.0194 16.2488L20.8869 16.3816C20.4375 16.8322 20.2011 17.4494 20.2037 18.0875C20.2037 18.0927 20.2037 18.1005 20.2037 18.1057C20.2011 18.7437 20.4349 19.3584 20.8843 19.8089L21.0013 19.9261C21.4455 20.3714 22.0534 20.6162 22.6821 20.6084C23.3316 20.6006 23.9837 20.8454 24.4799 21.3428C25.4982 22.3637 25.4541 24.0461 24.3474 25.0097C23.4069 25.8301 21.9885 25.8248 21.0584 25.0019Z" fill="#FF0D78"/>
</svg>
